<svg height="179" viewBox="0 0 186 179" width="186" xmlns="http://www.w3.org/2000/svg" xmlns:xlink="http://www.w3.org/1999/xlink"><defs><path id="a" d="m1.25358026 21.2299482v4.0451422c0 .7320742-1.25358026 1.1852973-1.25358026 1.6039342v2.7546454c0 .4532231.10434509.6275951 1.14923517 1.3250831 1.04453028.697488 9.60766363 1.3250831 10.60002133 1.3250831h7.853227 50.6224781c1.5673351 0 2.6816686.7670206 3.7960022.7670206h9.3676699c1.1146934 0 1.8116466-1.4645086 1.8116466-2.0921037 0 0 .7196212-2.3713152.7196212-3.4171869 0-.7839535-.5735381-4.334081-1.9519727-6.8260875-.7966207-1.4400101-8.6653195-3.6625326-9.9246568-4.3232728 0 0-6.7194636-9.29575707-9.9653154-11.47108384-1.44392-.96769256-4.0151268-2.87929969-11.0260371-4.06279562-5.6983211-.9619282-45.27425278-1.13485911-49.05190465-.41971773-.84411576.15960082-2.24198008 14.29994539-2.24198008 14.29994539s-.50445451 5.4451621-.50445451 6.4913941"/><mask id="b" fill="#fff"><use fill="none" xlink:href="#a"/></mask><mask id="c" fill="#fff"><path d="m.23116712.0502711c-.06127671.00145293-.10977534.05288637-.10803287.11419968.00145205.0616039.05285479.10984091.11384109.1080974.06127672-.0017435.10977535-.05288636.10803288-.11419967-.00145206-.06044156-.05082192-.10809741-.11064658-.10809741-.00116164 0-.00203287 0-.00319452 0" fill="none"/></mask><mask id="d" fill="#fff"><path d="m.23000548.1194302c-.05198356.03254545-.06824658.10083279-.03630137.15313798.03194521.05201461.10019178.06857792.15275616.03632305.05227398-.03225487.06853699-.10083279.03630137-.15313798-.02090958-.03370779-.05721095-.05259578-.09467397-.05259578-.01974794 0-.0397863.00523052-.05808219.01627273" fill="none"/></mask><mask id="e" fill="#fff"><path d="m.10222466.19643507c-.02875069.05375811-.00871233.12146428.04530411.15052272.05372603.02934903.12110137.0092987.15014246-.04475.02933151-.0540487.00929315-.12146428-.04472328-.15081331-.01655343-.00900812-.03484932-.01336688-.05256439-.01336688-.03949589 0-.07783013.02121266-.0981589.05840747" fill="none"/></mask><mask id="f" fill="#fff"><path d="m.21054795.30220779c-.0290411.05433929-.00871233.12146429.04501369.15081331.05401644.02934903.12139179.00900812.15043288-.04475.02933151-.05433928.00929315-.12175487-.04443288-.15110389-.01684383-.00900812-.03513972-.0130763-.05285479-.0130763-.0397863 0-.07783014.02092208-.0981589.05811688" fill="none"/></mask><mask id="g" fill="#fff"><path d="m.8028411.38923783c-.27574521.00784577-.49311781.23755275-.48571233.51433441.00784109.2759099.23828219.49341234.51402739.48556656.27574521-.0074099.49311781-.23755276.48527672-.51389854-.00696987-.27155114-.23000548-.48600243-.49965206-.48643831-.00479178 0-.00914794.00043588-.01393972.00043588" fill="none"/></mask><mask id="h" fill="#fff"><path d="m.27124384.04126299c-.06098631.0017435-.10977535.05317695-.10774247.11419967.00145205.06131331.05285479.10984091.11413151.10809741.06127671-.00174351.10948493-.05288637.10803287-.11419968-.00203287-.06044156-.05140274-.1080974-.1115178-.1080974-.00087124 0-.00174247 0-.00290411 0" fill="none"/></mask><mask id="i" fill="#fff"><path d="m.16204932.29552435c-.05227398.03225487-.06853699.10054221-.03601096.1528474.03165479.0523052.10048219.06828734.15246575.03661364.05227397-.03254545.06853699-.10112338.03630137-.15313799-.02090959-.03399837-.05721096-.05288636-.09467397-.05288636-.01974795 0-.0397863.0055211-.05808219.01656331" fill="none"/></mask><mask id="j" fill="#fff"><path d="m.34345936.42759497c-.21451689.09981574-.31674155.37616152-.22884383.61807305.08867214.24103977.33494063.3561112.54907032.25673133.21451689-.09937987.31674155-.3765974.2280694-.61763717-.06660091-.18263231-.22342283-.2929091-.38837625-.2929091-.05343562 0-.10764567.0113328-.15991964.03574189" fill="none"/></mask><mask id="k" fill="#fff"><path d="m.14781918.39984416c-.10541918.05889177-.1562411.22084415-.11267945.3622619.04414246.14141775.16524383.20883333.27153424.15032901.10570959-.05850433.15653151-.22045671.11296987-.36187446-.03339726-.10693507-.11093699-.17163853-.19254247-.17163853-.0264274 0-.05314521.00697402-.07928219.02092208" fill="none"/></mask></defs><g fill="none" fill-rule="evenodd" transform="translate(-23)"><path d="m112.941202 2.43035211c22.934965 5.51144739 49.35019 11.27600539 68.163641 23.92117669 9.488382 6.0957481 17.086286 13.9451386 21.856405 22.851007 2.38506 4.4523792 4.062303 9.16601 4.912922 14.046901.212461 1.2204078.373452 2.4508068.481037 3.6904569.053405.619825.09404 1.2418704.120743 1.866136.026702.6238955.03986 1.2500113.039086 1.8779774-.002709 2.5118641-.227554 5.0533319-.68808 7.6129318-3.157505 20.1966757-18.227538 35.0976401-34.556472 52.7077021-16.875372 16.490307-35.265062 37.676113-57.823092 45.577679-2.79489.952126-5.589005 1.626347-8.366866 2.015265-.694272.097691-1.38777.177621-2.080107.239419-.692337.062167-1.383126.106202-2.072754.132846-1.378868.053286-2.751932.035894-4.1172561-.051807-5.4616826-.347102-10.7987524-1.830981-15.9136861-4.285489-10.2329633-4.890142-19.5715776-13.675006-27.4167721-23.762797-7.8935691-10.214347-14.3146163-21.54919-18.8757579-33.208931-2.2786358-5.849299-4.0878448-11.824782-5.3626115-17.9678962-.6373833-3.072482-1.1408659-6.1875193-1.5015467-9.3510323-.1803404-1.5819416-.3246901-3.1753545-.4322751-4.7820891-.0537926-.8026272-.0986842-1.6093249-.1339009-2.4186129-.0352166-.809288-.0607584-1.6215363-.0773993-2.4374851-.0278637-.8018871-.0452786-1.6034042-.0522445-2.4049212-.0065789-.8015171-.002709-1.6026641.0112229-2.403071.0286377-1.6011839.0982971-3.2008876.2082042-4.7961508.220201-3.1908964.6013926-6.366991 1.1315779-9.5075613 1.0611446-6.2800305 2.7209729-12.420554 4.8912497-18.2069447 4.3366836-11.5879532 10.731802-21.6646434 18.3862072-28.7802351 7.7658602-7.30431446 16.7867503-11.68342473 26.7743578-13.53290869 4.9926428-.92918251 10.2240625-1.23668975 15.6528504-.99060995 1.357197.06179748 2.7267778.15800913 4.1079691.28789486 1.38119.13025577 2.774378.29381558 4.178788.49067942 2.808048.39335763 5.660986.91845121 8.55456 1.57047017" fill="#f6f8fa"/><g transform="translate(0 33.190331)"><g transform="translate(126.619178 70.902597)"><path d="m33.1068493 41.8441558h22.6520548v-41.8441558h-22.6520548z" fill="#fff"/><path d="m33.1068493 41.8441558h22.6520548v-41.8441558h-22.6520548z" stroke="#e1e4e5" stroke-linecap="round" stroke-linejoin="round" stroke-width=".8352"/><path d="m24.9753425 41.8441558h18.5863013v-31.3831168h-18.5863013z" fill="#fff"/><path d="m24.9753425 41.8441558h18.5863013v-31.3831168h-18.5863013z" stroke="#e1e4e5" stroke-linecap="round" stroke-linejoin="round" stroke-width=".8352"/><path d="m23.8136986 10.461039h22.0712329v-1.1623377h-22.0712329z" fill="#fff"/><path d="m23.8136986 10.461039h22.0712329v-1.1623377h-22.0712329z" stroke="#e1e4e5" stroke-linecap="round" stroke-linejoin="round" stroke-width=".8352"/><path d="m27.2986301 30.2207792h2.3232877v-5.8116883h-2.3232877z" fill="#fff"/><path d="m27.2986301 30.2207792h2.3232877v-5.8116883h-2.3232877z" stroke="#e1e4e5" stroke-linecap="round" stroke-linejoin="round" stroke-width=".8352"/><path d="m33.1068493 30.2207792h2.3232877v-5.8116883h-2.3232877z" fill="#fff"/><path d="m33.1068493 30.2207792h2.3232877v-5.8116883h-2.3232877z" stroke="#e1e4e5" stroke-linecap="round" stroke-linejoin="round" stroke-width=".8352"/><path d="m37.7534247 30.2207792h2.3232876v-5.8116883h-2.3232876z" fill="#fff"/><path d="m37.7534247 30.2207792h2.3232876v-5.8116883h-2.3232876z" stroke="#e1e4e5" stroke-linecap="round" stroke-linejoin="round" stroke-width=".8352"/><path d="m27.2986301 20.3409091h2.3232877v-5.8116883h-2.3232877z" fill="#fff"/><path d="m27.2986301 20.3409091h2.3232877v-5.8116883h-2.3232877z" stroke="#e1e4e5" stroke-linecap="round" stroke-linejoin="round" stroke-width=".8352"/><path d="m33.1068493 20.3409091h2.3232877v-5.8116883h-2.3232877z" fill="#fff"/><path d="m33.1068493 20.3409091h2.3232877v-5.8116883h-2.3232877z" stroke="#e1e4e5" stroke-linecap="round" stroke-linejoin="round" stroke-width=".8352"/><path d="m37.7534247 20.3409091h2.3232876v-5.8116883h-2.3232876z" fill="#fff"/><path d="m37.7534247 20.3409091h2.3232876v-5.8116883h-2.3232876z" stroke="#e1e4e5" stroke-linecap="round" stroke-linejoin="round" stroke-width=".8352"/><path d="m27.2986301 40.1006494h2.3232877v-5.8116884h-2.3232877z" fill="#fff"/><path d="m27.2986301 40.1006494h2.3232877v-5.8116884h-2.3232877z" stroke="#e1e4e5" stroke-linecap="round" stroke-linejoin="round" stroke-width=".8352"/><path d="m33.1068493 41.8441558h2.3232877v-7.5551948h-2.3232877z" fill="#fff"/><path d="m33.1068493 41.8441558h2.3232877v-7.5551948h-2.3232877z" stroke="#e1e4e5" stroke-linecap="round" stroke-linejoin="round" stroke-width=".8352"/><path d="m37.7534247 40.1006494h2.3232876v-5.8116884h-2.3232876z" fill="#fff"/><path d="m37.7534247 40.1006494h2.3232876v-5.8116884h-2.3232876z" stroke="#e1e4e5" stroke-linecap="round" stroke-linejoin="round" stroke-width=".8352"/><path d="m50.5315068 42.4253247h22.0712329v-37.19480522h-22.0712329z" fill="#fff"/><path d="m50.5315068 42.4253247h22.0712329v-37.19480522h-22.0712329z" stroke="#e1e4e5" stroke-linecap="round" stroke-linejoin="round" stroke-width=".8352"/><path d="m50.5315068 42.4253247h22.0712329v-1.7435065h-22.0712329z" fill="#fff"/><path d="m50.5315068 42.4253247h22.0712329v-1.7435065h-22.0712329z" stroke="#e1e4e5" stroke-linecap="round" stroke-linejoin="round" stroke-width=".8352"/><path d="m48.7890411 5.23051948h26.1369863v-1.16233766h-26.1369863z" fill="#fff"/><path d="m48.7890411 5.23051948h26.1369863v-1.16233766h-26.1369863z" stroke="#e1e4e5" stroke-linecap="round" stroke-linejoin="round" stroke-width=".8352"/><path d="m60.4054795 41.8441558h2.3232876v-7.5551948h-2.3232876z" fill="#fff"/><path d="m60.4054795 41.8441558h2.3232876v-7.5551948h-2.3232876z" stroke="#e1e4e5" stroke-linecap="round" stroke-linejoin="round" stroke-width=".8352"/><path d="m66.2136986 39.5194805h2.3232877v-2.3246753h-2.3232877z" fill="#fff"/><path d="m66.2136986 39.5194805h2.3232877v-2.3246753h-2.3232877z" stroke="#e1e4e5" stroke-linecap="round" stroke-linejoin="round" stroke-width=".8352"/><path d="m53.4356164 39.5194805h2.3232877v-2.3246753h-2.3232877z" fill="#fff"/><path d="m53.4356164 39.5194805h2.3232877v-2.3246753h-2.3232877z" stroke="#e1e4e5" stroke-linecap="round" stroke-linejoin="round" stroke-width=".8352"/><path d="m66.2136986 29.0584416h2.3232877v-2.3246754h-2.3232877z" fill="#fff"/><path d="m66.2136986 29.0584416h2.3232877v-2.3246754h-2.3232877z" stroke="#e1e4e5" stroke-linecap="round" stroke-linejoin="round" stroke-width=".8352"/><path d="m53.4356164 29.0584416h2.3232877v-2.3246754h-2.3232877z" fill="#fff"/><path d="m53.4356164 29.0584416h2.3232877v-2.3246754h-2.3232877z" stroke="#e1e4e5" stroke-linecap="round" stroke-linejoin="round" stroke-width=".8352"/><path d="m60.4054795 29.0584416h2.3232876v-2.3246754h-2.3232876z" fill="#fff"/><path d="m60.4054795 29.0584416h2.3232876v-2.3246754h-2.3232876z" stroke="#e1e4e5" stroke-linecap="round" stroke-linejoin="round" stroke-width=".8352"/><path d="m66.2136986 22.6655844h2.3232877v-2.3246753h-2.3232877z" fill="#fff"/><path d="m66.2136986 22.6655844h2.3232877v-2.3246753h-2.3232877z" stroke="#e1e4e5" stroke-linecap="round" stroke-linejoin="round" stroke-width=".8352"/><path d="m53.4356164 22.6655844h2.3232877v-2.3246753h-2.3232877z" fill="#fff"/><path d="m53.4356164 22.6655844h2.3232877v-2.3246753h-2.3232877z" stroke="#e1e4e5" stroke-linecap="round" stroke-linejoin="round" stroke-width=".8352"/><path d="m60.4054795 22.6655844h2.3232876v-2.3246753h-2.3232876z" fill="#fff"/><path d="m60.4054795 22.6655844h2.3232876v-2.3246753h-2.3232876z" stroke="#e1e4e5" stroke-linecap="round" stroke-linejoin="round" stroke-width=".8352"/><path d="m66.2136986 17.4350649h2.3232877v-2.3246753h-2.3232877z" fill="#fff"/><path d="m66.2136986 17.4350649h2.3232877v-2.3246753h-2.3232877z" stroke="#e1e4e5" stroke-linecap="round" stroke-linejoin="round" stroke-width=".8352"/><path d="m53.4356164 17.4350649h2.3232877v-2.3246753h-2.3232877z" fill="#fff"/><path d="m53.4356164 17.4350649h2.3232877v-2.3246753h-2.3232877z" stroke="#e1e4e5" stroke-linecap="round" stroke-linejoin="round" stroke-width=".8352"/><path d="m60.4054795 17.4350649h2.3232876v-2.3246753h-2.3232876z" fill="#fff"/><path d="m60.4054795 17.4350649h2.3232876v-2.3246753h-2.3232876z" stroke="#e1e4e5" stroke-linecap="round" stroke-linejoin="round" stroke-width=".8352"/><path d="m66.2136986 11.0422078h2.3232877v-2.32467533h-2.3232877z" fill="#fff"/><path d="m66.2136986 11.0422078h2.3232877v-2.32467533h-2.3232877z" stroke="#e1e4e5" stroke-linecap="round" stroke-linejoin="round" stroke-width=".8352"/><path d="m53.4356164 11.0422078h2.3232877v-2.32467533h-2.3232877z" fill="#fff"/><path d="m53.4356164 11.0422078h2.3232877v-2.32467533h-2.3232877z" stroke="#e1e4e5" stroke-linecap="round" stroke-linejoin="round" stroke-width=".8352"/><path d="m60.4054795 11.0422078h2.3232876v-2.32467533h-2.3232876z" fill="#fff"/><path d="m60.4054795 11.0422078h2.3232876v-2.32467533h-2.3232876z" stroke="#e1e4e5" stroke-linecap="round" stroke-linejoin="round" stroke-width=".8352"/></g><g transform="translate(0 70.902597)"><path d="m33.1068493 41.8441558h22.6520548v-41.8441558h-22.6520548z" fill="#fff"/><path d="m33.1068493 41.8441558h22.6520548v-41.8441558h-22.6520548z" stroke="#e1e4e5" stroke-linecap="round" stroke-linejoin="round" stroke-width=".8352"/><path d="m24.9753425 41.8441558h18.5863013v-31.3831168h-18.5863013z" fill="#fff"/><path d="m24.9753425 41.8441558h18.5863013v-31.3831168h-18.5863013z" stroke="#e1e4e5" stroke-linecap="round" stroke-linejoin="round" stroke-width=".8352"/><path d="m23.8136986 10.461039h22.0712329v-1.1623377h-22.0712329z" fill="#fff"/><path d="m23.8136986 10.461039h22.0712329v-1.1623377h-22.0712329z" stroke="#e1e4e5" stroke-linecap="round" stroke-linejoin="round" stroke-width=".8352"/><path d="m27.2986301 30.2207792h2.3232877v-5.8116883h-2.3232877z" fill="#fff"/><path d="m27.2986301 30.2207792h2.3232877v-5.8116883h-2.3232877z" stroke="#e1e4e5" stroke-linecap="round" stroke-linejoin="round" stroke-width=".8352"/><path d="m33.1068493 30.2207792h2.3232877v-5.8116883h-2.3232877z" fill="#fff"/><path d="m33.1068493 30.2207792h2.3232877v-5.8116883h-2.3232877z" stroke="#e1e4e5" stroke-linecap="round" stroke-linejoin="round" stroke-width=".8352"/><path d="m37.7534247 30.2207792h2.3232876v-5.8116883h-2.3232876z" fill="#fff"/><path d="m37.7534247 30.2207792h2.3232876v-5.8116883h-2.3232876z" stroke="#e1e4e5" stroke-linecap="round" stroke-linejoin="round" stroke-width=".8352"/><path d="m27.2986301 20.3409091h2.3232877v-5.8116883h-2.3232877z" fill="#fff"/><path d="m27.2986301 20.3409091h2.3232877v-5.8116883h-2.3232877z" stroke="#e1e4e5" stroke-linecap="round" stroke-linejoin="round" stroke-width=".8352"/><path d="m33.1068493 20.3409091h2.3232877v-5.8116883h-2.3232877z" fill="#fff"/><path d="m33.1068493 20.3409091h2.3232877v-5.8116883h-2.3232877z" stroke="#e1e4e5" stroke-linecap="round" stroke-linejoin="round" stroke-width=".8352"/><path d="m37.7534247 20.3409091h2.3232876v-5.8116883h-2.3232876z" fill="#fff"/><path d="m37.7534247 20.3409091h2.3232876v-5.8116883h-2.3232876z" stroke="#e1e4e5" stroke-linecap="round" stroke-linejoin="round" stroke-width=".8352"/><path d="m27.2986301 40.1006494h2.3232877v-5.8116884h-2.3232877z" fill="#fff"/><path d="m27.2986301 40.1006494h2.3232877v-5.8116884h-2.3232877z" stroke="#e1e4e5" stroke-linecap="round" stroke-linejoin="round" stroke-width=".8352"/><path d="m33.1068493 41.8441558h2.3232877v-7.5551948h-2.3232877z" fill="#fff"/><path d="m33.1068493 41.8441558h2.3232877v-7.5551948h-2.3232877z" stroke="#e1e4e5" stroke-linecap="round" stroke-linejoin="round" stroke-width=".8352"/><path d="m37.7534247 40.1006494h2.3232876v-5.8116884h-2.3232876z" fill="#fff"/><path d="m37.7534247 40.1006494h2.3232876v-5.8116884h-2.3232876z" stroke="#e1e4e5" stroke-linecap="round" stroke-linejoin="round" stroke-width=".8352"/><path d="m50.5315068 42.4253247h22.0712329v-37.19480522h-22.0712329z" fill="#fff"/><path d="m50.5315068 42.4253247h22.0712329v-37.19480522h-22.0712329z" stroke="#e1e4e5" stroke-linecap="round" stroke-linejoin="round" stroke-width=".8352"/><path d="m50.5315068 42.4253247h22.0712329v-1.7435065h-22.0712329z" fill="#fff"/><path d="m50.5315068 42.4253247h22.0712329v-1.7435065h-22.0712329z" stroke="#e1e4e5" stroke-linecap="round" stroke-linejoin="round" stroke-width=".8352"/><path d="m48.7890411 5.23051948h26.1369863v-1.16233766h-26.1369863z" fill="#fff"/><path d="m48.7890411 5.23051948h26.1369863v-1.16233766h-26.1369863z" stroke="#e1e4e5" stroke-linecap="round" stroke-linejoin="round" stroke-width=".8352"/><path d="m60.4054795 41.8441558h2.3232876v-7.5551948h-2.3232876z" fill="#fff"/><path d="m60.4054795 41.8441558h2.3232876v-7.5551948h-2.3232876z" stroke="#e1e4e5" stroke-linecap="round" stroke-linejoin="round" stroke-width=".8352"/><path d="m66.2136986 39.5194805h2.3232877v-2.3246753h-2.3232877z" fill="#fff"/><path d="m66.2136986 39.5194805h2.3232877v-2.3246753h-2.3232877z" stroke="#e1e4e5" stroke-linecap="round" stroke-linejoin="round" stroke-width=".8352"/><path d="m53.4356164 39.5194805h2.3232877v-2.3246753h-2.3232877z" fill="#fff"/><path d="m53.4356164 39.5194805h2.3232877v-2.3246753h-2.3232877z" stroke="#e1e4e5" stroke-linecap="round" stroke-linejoin="round" stroke-width=".8352"/><path d="m66.2136986 29.0584416h2.3232877v-2.3246754h-2.3232877z" fill="#fff"/><path d="m66.2136986 29.0584416h2.3232877v-2.3246754h-2.3232877z" stroke="#e1e4e5" stroke-linecap="round" stroke-linejoin="round" stroke-width=".8352"/><path d="m53.4356164 29.0584416h2.3232877v-2.3246754h-2.3232877z" fill="#fff"/><path d="m53.4356164 29.0584416h2.3232877v-2.3246754h-2.3232877z" stroke="#e1e4e5" stroke-linecap="round" stroke-linejoin="round" stroke-width=".8352"/><path d="m60.4054795 29.0584416h2.3232876v-2.3246754h-2.3232876z" fill="#fff"/><path d="m60.4054795 29.0584416h2.3232876v-2.3246754h-2.3232876z" stroke="#e1e4e5" stroke-linecap="round" stroke-linejoin="round" stroke-width=".8352"/><path d="m66.2136986 22.6655844h2.3232877v-2.3246753h-2.3232877z" fill="#fff"/><path d="m66.2136986 22.6655844h2.3232877v-2.3246753h-2.3232877z" stroke="#e1e4e5" stroke-linecap="round" stroke-linejoin="round" stroke-width=".8352"/><path d="m53.4356164 22.6655844h2.3232877v-2.3246753h-2.3232877z" fill="#fff"/><path d="m53.4356164 22.6655844h2.3232877v-2.3246753h-2.3232877z" stroke="#e1e4e5" stroke-linecap="round" stroke-linejoin="round" stroke-width=".8352"/><path d="m60.4054795 22.6655844h2.3232876v-2.3246753h-2.3232876z" fill="#fff"/><path d="m60.4054795 22.6655844h2.3232876v-2.3246753h-2.3232876z" stroke="#e1e4e5" stroke-linecap="round" stroke-linejoin="round" stroke-width=".8352"/><path d="m66.2136986 17.4350649h2.3232877v-2.3246753h-2.3232877z" fill="#fff"/><path d="m66.2136986 17.4350649h2.3232877v-2.3246753h-2.3232877z" stroke="#e1e4e5" stroke-linecap="round" stroke-linejoin="round" stroke-width=".8352"/><path d="m53.4356164 17.4350649h2.3232877v-2.3246753h-2.3232877z" fill="#fff"/><path d="m53.4356164 17.4350649h2.3232877v-2.3246753h-2.3232877z" stroke="#e1e4e5" stroke-linecap="round" stroke-linejoin="round" stroke-width=".8352"/><path d="m60.4054795 17.4350649h2.3232876v-2.3246753h-2.3232876z" fill="#fff"/><path d="m60.4054795 17.4350649h2.3232876v-2.3246753h-2.3232876z" stroke="#e1e4e5" stroke-linecap="round" stroke-linejoin="round" stroke-width=".8352"/><path d="m66.2136986 11.0422078h2.3232877v-2.32467533h-2.3232877z" fill="#fff"/><path d="m66.2136986 11.0422078h2.3232877v-2.32467533h-2.3232877z" stroke="#e1e4e5" stroke-linecap="round" stroke-linejoin="round" stroke-width=".8352"/><path d="m53.4356164 11.0422078h2.3232877v-2.32467533h-2.3232877z" fill="#fff"/><path d="m53.4356164 11.0422078h2.3232877v-2.32467533h-2.3232877z" stroke="#e1e4e5" stroke-linecap="round" stroke-linejoin="round" stroke-width=".8352"/><path d="m60.4054795 11.0422078h2.3232876v-2.32467533h-2.3232876z" fill="#fff"/><path d="m60.4054795 11.0422078h2.3232876v-2.32467533h-2.3232876z" stroke="#e1e4e5" stroke-linecap="round" stroke-linejoin="round" stroke-width=".8352"/></g><path d="m67.3753425 113.327922h48.2082195v-78.4577921h-48.2082195z" fill="#fff"/><path d="m67.3753425 113.327922h48.2082195v-78.4577921h-48.2082195z" stroke="#0e0630" stroke-linecap="round" stroke-linejoin="round" stroke-width="1.16"/><path d="m48.2082192 113.327922h55.7589038v-43.0064934h-55.7589038z" fill="#fff"/><path d="m48.2082192 113.327922h55.7589038v-43.0064934h-55.7589038z" stroke="#0e0630" stroke-linecap="round" stroke-linejoin="round" stroke-width="1.16"/><path d="m45.3041096 72.0649351h60.4054794v-2.9058442h-60.4054794z" fill="#fbaf23"/><path d="m45.3041096 72.0649351h60.4054794v-2.9058442h-60.4054794z" stroke="#0e0630" stroke-linecap="round" stroke-linejoin="round" stroke-width="1.16"/><path d="m60.9863014 34.288961h60.4054796v-2.9058441h-60.4054796z" fill="#fbaf23"/><path d="m60.9863014 34.288961h60.4054796v-2.9058441h-60.4054796z" stroke="#0e0630" stroke-linecap="round" stroke-linejoin="round" stroke-width="1.16"/><path d="m70.2794521 112.746753h11.6164383v-16.272727h-11.6164383z" fill="#f5fdfc"/><path d="m70.2794521 112.746753h11.6164383v-16.272727h-11.6164383z" stroke="#0e0630" stroke-linecap="round" stroke-linejoin="round" stroke-width="1.16"/><path d="m69.6986301 91.8246753h12.7780822v-13.3668831h-12.7780822z" fill="#fff"/><path d="m69.6986301 91.8246753h12.7780822v-13.3668831h-12.7780822z" stroke="#cecece" stroke-linecap="round" stroke-linejoin="round" stroke-width="1.16"/><path d="m87.7041096 112.165584h11.6164383v-33.7077918h-11.6164383z" fill="#f5fdfc"/><path d="m87.7041096 112.165584h11.6164383v-33.7077918h-11.6164383z" stroke="#0e0630" stroke-linecap="round" stroke-linejoin="round" stroke-width="1.16"/><path d="m52.8547945 112.165584h11.6164384v-33.7077918h-11.6164384z" fill="#f5fdfc"/><path d="m52.8547945 112.165584h11.6164384v-33.7077918h-11.6164384z" stroke="#0e0630" stroke-linecap="round" stroke-linejoin="round" stroke-width="1.16"/><path d="m16.2630137 112.746753h195.7369863z" fill="#fff"/><g transform="translate(16.263014)"><g fill="#fff"><path d="m167.203196 24.5302015c3.511392 0 1.868137-5.5752205-2.580202-4.2432922-.245751-7.7411803-12.847758-13.4050279-18.058176-2.9643241-1.473425-1.1672836-4.781524 1.0375855-4.048949 2.9643241-1.636419.1394255-2.924181.328929-3.925534.5800391-2.312863.5796788-1.855544 3.6369532.528561 3.6156971z" stroke="#e1e4e5" stroke-width="1.16"/><path d="m34.6992615 14.8763817h29.8171477c2.7986071 0 2.6705145-2.3075468 1.7562357-3.1116756-.9369469-.8239437-2.7885324-.4896106-2.7885324-.4896106s-.5512299-1.55205496-2.3653952-2.30754688c-1.6051152-.66830593-3.2865103-.35054537-3.2865103-.35054537s0-1.06496621-1.0272594-1.94727413c-1.027979-.88230793-2.3981379-.79656301-2.3981379-.79656301s-.9419842-5.87316611-7.2361517-5.87316611c-6.2938076 0-7.0217046 5.53054674-7.0217046 5.53054674s-1.4129763 0-2.4405955.94283374c-1.0276192.94319402-1.1560716 2.01536567-1.1560716 2.01536567s-3.4365514-.46403128-4.4530164 2.50461605c-.6055613 1.7689391.6386639 3.8830195 2.5999916 3.8830195" stroke="#e1e4e5" stroke-width="1.16"/><path d="m83.6566926 112.541538h67.9045424v-48.8702753h-67.9045424z"/></g><path d="m83.6566926 112.541538h67.9045424v-48.8702753h-67.9045424z" stroke="#0e0630" stroke-linecap="round" stroke-linejoin="round" stroke-width="1.16"/><path d="m83.6566926 112.541538h67.9045424v-8.625649h-67.9045424z" fill="#a0e9de"/><path d="m83.6566926 112.541538h67.9045424v-8.625649h-67.9045424z" stroke="#0e0630" stroke-linecap="round" stroke-linejoin="round" stroke-width="1.16"/><path d="m75.3799686 68.2820331h84.4583504v-7.6435463h-84.4583504z" fill="#f5fdfc"/><path d="m75.3799686 68.2820331h84.4583504v-7.6435463h-84.4583504z" stroke="#0e0630" stroke-linecap="round" stroke-linejoin="round" stroke-width="1.16"/><path d="m127.211051 113.044119h13.635024v-33.9708367h-13.635024z" fill="#f5fdfc"/><path d="m127.211051 113.044119h13.635024v-33.9708367h-13.635024z" stroke="#0e0630" stroke-linecap="round" stroke-linejoin="round" stroke-width="1.16"/><path d="m99.2598809 103.381964h13.6350241v-13.0058452h-13.6350241z" fill="#fff"/><path d="m99.2598809 103.381964h13.6350241v-13.0058452h-13.6350241z" stroke="#cecece" stroke-linecap="round" stroke-linejoin="round" stroke-width="1.16"/><path d="m24.3543586 98.0977722h.0079159c.225961 0 .4091047.1833789.4091047.4096301v14.5366447h-.8261253v-14.5366447c0-.2262512.1831437-.4096301.4091047-.4096301" fill="#fff"/><path d="m24.3543586 98.0977722h.0079159c.225961 0 .4091047.1833789.4091047.4096301v14.5366447h-.8261253v-14.5366447c0-.2262512.1831437-.4096301.4091047-.4096301z" stroke="#0d0630" stroke-linecap="round" stroke-linejoin="round" stroke-width="1.16"/><path d="m17.1170195 102.81648c0 4.022085 3.2562863 7.282553 7.2732123 7.282553 4.0165661 0 7.2732122-3.260468 7.2732122-7.282553 0-4.0220844-3.2566461-8.2340329-7.2732122-8.2340329-4.016926 0-7.2732123 4.2119485-7.2732123 8.2340329" fill="#41d3bd" stroke="#0d0630" stroke-width="1.16"/><path d="m175.603422 99.4618008h.007556c.205452 0 .371685.166446.371685.3721618v13.2101204h-.750565v-13.2101204c0-.2057158.166232-.3721618.371324-.3721618" fill="#fff"/><path d="m175.603422 99.4618008h.007556c.205452 0 .371685.166446.371685.3721618v13.2101204h-.750565v-13.2101204c0-.2057158.166232-.3721618.371324-.3721618z" stroke="#0d0630" stroke-linecap="round" stroke-linejoin="round" stroke-width="1.16"/><path d="m169.026696 103.749875c0 3.654967 2.959442 6.61785 6.609361 6.61785 3.650279 0 6.609362-2.962883 6.609362-6.61785s-2.959083-7.4828647-6.609362-7.4828647c-3.649919 0-6.609361 3.8278977-6.609361 7.4828647" fill="#41d3bd" stroke="#0d0630" stroke-width="1.16"/><path d="m157.238687 94.3646622h.007916c.223802 0 .404787.1815775.404787.4053068v18.274114h-.81749v-18.274114c0-.2237293.180985-.4053068.404787-.4053068" fill="#fff"/><path d="m157.238687 94.3646622h.007916c.223802 0 .404787.1815775.404787.4053068v18.274114h-.81749v-18.274114c0-.2237293.180985-.4053068.404787-.4053068z" stroke="#0d0630" stroke-linecap="round" stroke-linejoin="round" stroke-width="1.16"/><path d="m150.074786 102.920455c0 3.981014 3.223183 7.208337 7.199451 7.208337 3.975907 0 7.199091-3.227323 7.199091-7.208337 0-3.9810136-3.223184-11.8327976-7.199091-11.8327976-3.976268 0-7.199451 7.851784-7.199451 11.8327976" fill="#41d3bd" stroke="#0d0630" stroke-width="1.16"/><g transform="translate(49.653868 76.2963)"><use fill="#fcc765" xlink:href="#a"/><g fill="#fff" fill-rule="nonzero" mask="url(#b)"><path d="m12.0739726 8.06040232c-.0276916.59082767-.1401267 1.17511839-.3341044 1.7362384-.3162855.95020958-.8018506 1.82691338-1.2250495 2.36828068-.3979555-.2950961-.77902014-.5698038-1.14319394-.824123-.2572604-.1808135-.50728191-.3514327-.75173493-.5140039-2.30977519-1.53825568-4.07328965-2.32643064-6.4036679-3.15967486-1.61873587-.66101535-2.17167867-2.54694796-2.14105243-3.84590754.01113681-.46786151.09800396-.8584615.23832781-1.0902461 3.48470901.69213458 6.73777231 2.03562682 9.87724009 4.04013447.3084897.19637303.6149377.39900577.9193439.60789804.3229676.21998077.6442648.44711533.9638913.68140381zm-2.31757094 4.99088058c-.12695788.1622449-.26341999.3173778-.40872105.4646423-.48723564.4936154-1.04296263.8681192-1.64824844 1.2066749-.35470753.1979827-.94662919.4624962-.94662919.4624962-.21048578-.0933577-.41373261-.1845692-.61252475-.2752442-.23535801-.1073078-.46069285-.2146154-.67600459-.3219231-.79906637-.3911365-1.46170679-.7624211-2.00963802-1.1358519-.6008311-.4093788-1.06356571-.8203673-1.41493219-1.2608653-.68380035-.8584615-.95052705-1.8210115-1.00565427-3.09689992-.00779577-.18295958-.01113681-.37289422-.01113681-.56926725 2.35376557.82680571 4.39235934 1.65200187 6.95271281 3.30400367.23498675.1513039.47442826.3097616.71832446.4753731.34487.2339308.69902066.4828846 1.06245204.7468615zm2.02188854-7.34252857-.3135013-.17759421c-.3433851-.19386923-.6797169-.3793327-1.0089953-.55639038-2.92675471-1.57795954-5.40747995-2.55392296-9.16949561-3.24927678-.11136814-.02110384-.22459241-.04167116-.33967282-.06170192l.02115995-.02629038c.20975439-.26004109.44591063-.49927.7049603-.71413267 1.55915392-1.27749803 3.32378204-.91533458 5.18307312-.57034036 1.15839824.22382282 2.29787864.53049865 3.40897866.91748073.5534996.18993461.9583228.34928652 1.1376255.42171921l.1030155.04238654c.0495589.16954615.0929925.33479999.1303008.4968346.2611582 1.12351149.2388846 2.10215762.1425512 3.47730562z" transform="translate(9.009146 4.486167)"/></g><path d="m-.066745 21.801472h85.919902v11.222394h-85.919902z" fill="#fbaf23" mask="url(#b)"/></g><path d="m50.8766843 97.6664177v4.0451423c0 .732074-1.2535803 1.185297-1.2535803 1.603934v2.754645c0 .453224.1043451.627596 1.1492352 1.325084 1.0445303.697488 9.6076636 1.325083 10.6000214 1.325083h7.8532269 50.6224785c1.567335 0 2.681668.76702 3.796002.76702h9.36767c1.114693 0 1.811646-1.464508 1.811646-2.092103 0 0 .719622-2.371316.719622-3.417187 0-.783954-.573539-4.3340813-1.951973-6.8260878-.796621-1.4400101-8.66532-3.6625326-9.924657-4.3232728 0 0-6.719464-9.295757-9.965315-11.4710838-1.44392-.9676926-4.015127-2.8792997-11.026037-4.0627956-5.6983215-.9619282-45.2742532-1.1348591-49.0519051-.4197178-.8441158.1596009-2.2419801 14.2999454-2.2419801 14.2999454s-.5044545 5.4451621-.5044545 6.4913941z" stroke="#0d0630" stroke-width="1.16"/></g><path d="m.23116712.0502711c-.06127671.00145293-.10977534.05288637-.10803287.11419968.00145205.0616039.05285479.10984091.11384109.1080974.06127672-.0017435.10977535-.05288636.10803288-.11419967-.00145206-.06044156-.05082192-.10809741-.11064658-.10809741-.00116164 0-.00203287 0-.00319452 0" mask="url(#c)" transform="translate(80.153425 83.688312)"/><path d="m.23000548.1194302c-.05198356.03254545-.06824658.10083279-.03630137.15313798.03194521.05201461.10019178.06857792.15275616.03632305.05227398-.03225487.06853699-.10083279.03630137-.15313798-.02090958-.03370779-.05721095-.05259578-.09467397-.05259578-.01974794 0-.0397863.00523052-.05808219.01627273" mask="url(#d)" transform="translate(80.734247 83.688312)"/><path d="m.10222466.19643507c-.02875069.05375811-.00871233.12146428.04530411.15052272.05372603.02934903.12110137.0092987.15014246-.04475.02933151-.0540487.00929315-.12146428-.04472328-.15081331-.01655343-.00900812-.03484932-.01336688-.05256439-.01336688-.03949589 0-.07783013.02121266-.0981589.05840747" mask="url(#e)" transform="translate(79.572603 83.688312)"/><path d="m.21054795.30220779c-.0290411.05433929-.00871233.12146429.04501369.15081331.05401644.02934903.12139179.00900812.15043288-.04475.02933151-.05433928.00929315-.12175487-.04443288-.15110389-.01684383-.00900812-.03513972-.0130763-.05285479-.0130763-.0397863 0-.07783014.02092208-.0981589.05811688" mask="url(#f)" transform="translate(80.734247 84.850649)"/><path d="m.8028411.38923783c-.27574521.00784577-.49311781.23755275-.48571233.51433441.00784109.2759099.23828219.49341234.51402739.48556656.27574521-.0074099.49311781-.23755276.48527672-.51389854-.00696987-.27155114-.23000548-.48600243-.49965206-.48643831-.00479178 0-.00914794.00043588-.01393972.00043588" mask="url(#g)" transform="translate(79.572603 83.688312)"/><path d="m.27124384.04126299c-.06098631.0017435-.10977535.05317695-.10774247.11419967.00145205.06131331.05285479.10984091.11413151.10809741.06127671-.00174351.10948493-.05288637.10803287-.11419968-.00203287-.06044156-.05140274-.1080974-.1115178-.1080974-.00087124 0-.00174247 0-.00290411 0" mask="url(#h)" transform="translate(80.153425 85.431818)"/><path d="m.16204932.29552435c-.05227398.03225487-.06853699.10054221-.03601096.1528474.03165479.0523052.10048219.06828734.15246575.03661364.05227397-.03254545.06853699-.10112338.03630137-.15313799-.02090959-.03399837-.05721096-.05288636-.09467397-.05288636-.01974795 0-.0397863.0055211-.05808219.01656331" mask="url(#i)" transform="translate(79.572603 84.850649)"/><path d="m.34345936.42759497c-.21451689.09981574-.31674155.37616152-.22884383.61807305.08867214.24103977.33494063.3561112.54907032.25673133.21451689-.09937987.31674155-.3765974.2280694-.61763717-.06660091-.18263231-.22342283-.2929091-.38837625-.2929091-.05343562 0-.10764567.0113328-.15991964.03574189" mask="url(#j)" transform="translate(82.476712 90.081169)"/><path d="m.14781918.39984416c-.10541918.05889177-.1562411.22084415-.11267945.3622619.04414246.14141775.16524383.20883333.27153424.15032901.10570959-.05850433.15653151-.22045671.11296987-.36187446-.03339726-.10693507-.11093699-.17163853-.19254247-.17163853-.0264274 0-.05314521.00697402-.07928219.02092208" mask="url(#k)" transform="translate(77.249315 90.081169)"/><g transform="translate(65.632877 27.896104)"><path d="m17.6047574 73.0276305c3.5234728 0 6.3802162 2.8448573 6.3802162 6.3541125 0 .3974908-.0389016.7860129-.1087803 1.1634139h-3.9006019-7.8617173c-.2107168 0-.4859094-.0297759-.7946004-.0807179-.0608738-.35193-.0943724-.7131874-.0943724-1.082696 0-3.5092552 2.8563832-6.3541125 6.3798561-6.3541125" fill="#404040"/><path d="m17.6047574 73.0276305c3.5234728 0 6.3802162 2.8448573 6.3802162 6.3541125 0 .3974908-.0389016.7860129-.1087803 1.1634139h-3.9006019-7.8617173c-.2107168 0-.4859094-.0297759-.7946004-.0807179-.0608738-.35193-.0943724-.7131874-.0943724-1.082696 0-3.5092552 2.8563832-6.3541125 6.3798561-6.3541125z" stroke="#0d0630" stroke-width="1.16"/><path d="m70.6529791 80.5451928h-5.5042107c-.0705991-.377401-.1087803-.7659231-.1087803-1.1634139 0-3.5092553 2.8563831-6.3541126 6.379856-6.3541126s6.3802162 2.8448573 6.3802162 6.3541126c0 .6719316-.1055385 1.3194685-.2996861 1.9271845h-3.0472889c-1.1158985 0-2.2314368-.7637706-3.8001062-.7637706" fill="#404040"/><path d="m70.6529791 80.5451928h-5.5042107c-.0705991-.377401-.1087803-.7659231-.1087803-1.1634139 0-3.5092553 2.8563831-6.3541126 6.379856-6.3541126s6.3802162 2.8448573 6.3802162 6.3541126c0 .6719316-.1055385 1.3194685-.2996861 1.9271845h-3.0472889c-1.1158985 0-2.2314368-.7637706-3.8001062-.7637706z" stroke="#0d0630" stroke-width="1.16"/><path d="m65.9288528 79.3819224c0 3.0202842 2.4583625 5.468727 5.4908833 5.468727 3.0328809 0 5.4908832-2.4484428 5.4908832-5.468727s-2.4580023-5.468727-5.4908832-5.468727c-3.0325208 0-5.4908833 2.4484428-5.4908833 5.468727" fill="#8f97a4"/><path d="m65.9288528 79.3819224c0 3.0202842 2.4583625 5.468727 5.4908833 5.468727 3.0328809 0 5.4908832-2.4484428 5.4908832-5.468727s-2.4580023-5.468727-5.4908832-5.468727c-3.0325208 0-5.4908833 2.4484428-5.4908833 5.468727z" stroke="#0d0630" stroke-width="1.16"/><path d="m67.5349829 79.3819224c0 2.1370511 1.7390439 3.8694364 3.8847532 3.8694364 2.1457092 0 3.8851133-1.7323853 3.8851133-3.8694364s-1.7394041-3.8694364-3.8851133-3.8694364c-2.1457093 0-3.8847532 1.7323853-3.8847532 3.8694364" fill="#fff"/><path d="m67.5349829 79.3819224c0 2.1370511 1.7390439 3.8694364 3.8847532 3.8694364 2.1457092 0 3.8851133-1.7323853 3.8851133-3.8694364s-1.7394041-3.8694364-3.8851133-3.8694364c-2.1457093 0-3.8847532 1.7323853-3.8847532 3.8694364z" stroke="#0d0630" stroke-width="1.16"/><path d="m12.113838 79.3819224c0 3.0202842 2.4583626 5.468727 5.4908833 5.468727 3.0325208 0 5.4908833-2.4484428 5.4908833-5.468727s-2.4583625-5.468727-5.4908833-5.468727c-3.0325207 0-5.4908833 2.4484428-5.4908833 5.468727" fill="#8f97a4"/><path d="m12.113838 79.3819224c0 3.0202842 2.4583626 5.468727 5.4908833 5.468727 3.0325208 0 5.4908833-2.4484428 5.4908833-5.468727s-2.4583625-5.468727-5.4908833-5.468727c-3.0325207 0-5.4908833 2.4484428-5.4908833 5.468727z" stroke="#0d0630" stroke-width="1.16"/><path d="m13.719608 79.3819224c0 2.1370511 1.7394041 3.8694364 3.8851133 3.8694364 2.1457093 0 3.8851133-1.7323853 3.8851133-3.8694364s-1.739404-3.8694364-3.8851133-3.8694364c-2.1457092 0-3.8851133 1.7323853-3.8851133 3.8694364" fill="#fff"/><path d="m13.719608 79.3819224c0 2.1370511 1.7394041 3.8694364 3.8851133 3.8694364 2.1457093 0 3.8851133-1.7323853 3.8851133-3.8694364s-1.739404-3.8694364-3.8851133-3.8694364c-2.1457092 0-3.8851133 1.7323853-3.8851133 3.8694364z" stroke="#0d0630" stroke-width="1.16"/><path d="m82.2947395 78.2361229c.1743366-.3451138.5968508-.6249358.943723-.6249358h2.4057734v1.6143578c0 .172557-.0551105.4086119-.1556062.6597343h-3.4006448c-.3465121 0-.4862695-.279822-.3112125-.6249359z" fill="#404040"/><path d="m82.2947395 78.2361229c.1743366-.3451138.5968508-.6249358.943723-.6249358h2.4057734v1.6143578c0 .172557-.0551105.4086119-.1556062.6597343h-3.4006448c-.3465121 0-.4862695-.279822-.3112125-.6249359z" stroke="#0d0630" stroke-width="1.16"/><path d="m.35177097 76.7864296v-.8746232h.96425443c.24241436 0 .43908336.1955166.43908336.4373116 0 .2414362-.196669.4373116-.43908336.4373116z" fill="#ff8c80"/><path d="m.35177097 76.7864296v-.8746232h.96425443c.24241436 0 .43908336.1955166.43908336.4373116 0 .2414362-.196669.4373116-.43908336.4373116z" stroke="#0e0e0e" stroke-linecap="round" stroke-linejoin="round" stroke-width="1.16"/><path d="m1.9765595 64.5682159s1.62990337.1887005 1.5002315 1.3539081c-.13003207 1.1648489 0 5.5017316-.26006414 6.0194024-.25970394.5180295-1.60973219 1.0862834-1.60973219 1.0862834s.03926176-5.9946488.36956483-8.4595939" fill="#ff8c80"/><path d="m1.9765595 64.5682159s1.62990337.1887005 1.5002315 1.3539081c-.13003207 1.1648489 0 5.5017316-.26006414 6.0194024-.25970394.5180295-1.60973219 1.0862834-1.60973219 1.0862834s.03926176-5.9946488.36956483-8.4595939z" stroke="#0e0e0e" stroke-linecap="round" stroke-linejoin="round" stroke-width="1.16"/><path d="m84.2906057 69.0259243s-1.9515617-.2988356-2.601722.0462783c-.64944.3451138.4704207 2.285572 1.340663 3.7219917.6217046 1.0260141 2.6064046 1.4823393 2.9644431 1.865839.3580384.3834996-.653042-3.6907809-1.7033841-5.634109" fill="#fff"/><path d="m84.2906057 69.0259243s-1.9515617-.2988356-2.601722.0462783c-.64944.3451138.4704207 2.285572 1.340663 3.7219917.6217046 1.0260141 2.6064046 1.4823393 2.9644431 1.865839.3580384.3834996-.653042-3.6907809-1.7033841-5.634109z" stroke="#0d0630" stroke-width="1.16"/><path d="m66.6999321 55.5676686s-3.0307197.4997334-2.8358517 1.3409932c.160649.6938152 5.2686401 5.1795775 7.5861646 7.345687.4927531.4609889 2.4093753.3311228 2.9946998.4068182 0 0-5.5438327-6.82407-7.7450127-9.0934984" fill="#8de5d7"/><path d="m66.6999321 55.5676686s-3.0307197.4997334-2.8358517 1.3409932c.160649.6938152 5.2686401 5.1795775 7.5861646 7.345687.4927531.4609889 2.4093753.3311228 2.9946998.4068182 0 0-5.5438327-6.82407-7.7450127-9.0934984z" stroke="#0d0630" stroke-width="1.16"/><path d="m66.0702671 62.9869703s-3.0015436-4.7236111-5.2527913-5.7101631c-2.2512477-.9865521-8.5547414-1.2556117-8.9149411-.9865521-.3601996.2690597.4502496 5.6502526 1.5308485 6.4574315s9.004991 2.6310446 10.7159393 3.3485369c1.7109482.7174924 2.6413439-1.5845819 1.9209446-3.1092532" fill="#8de5d7"/><path d="m66.0702671 62.9869703s-3.0015436-4.7236111-5.2527913-5.7101631c-2.2512477-.9865521-8.5547414-1.2556117-8.9149411-.9865521-.3601996.2690597.4502496 5.6502526 1.5308485 6.4574315s9.004991 2.6310446 10.7159393 3.3485369c1.7109482.7174924 2.6413439-1.5845819 1.9209446-3.1092532z" stroke="#0d0630" stroke-width="1.16"/><g transform="translate(47.568865 51.846)"><path d="m1.3412754.06765953s-1.57515303 16.08151557-.78775662 25.49501567" fill="#fff"/><path d="m1.3412754.06765953s-1.57515303 16.08151557-.78775662 25.49501567" stroke="#0d0630" stroke-linecap="round" stroke-linejoin="round" stroke-width="1.16"/></g><g transform="translate(28.118084 50.769761)"><path d="m1.56676037.01983866s-1.60324859 16.56725794-1.20270659 26.54721824" fill="#fff"/><path d="m1.56676037.01983866s-1.60324859 16.56725794-1.20270659 26.54721824" stroke="#0d0630" stroke-linecap="round" stroke-linejoin="round" stroke-width="1.16"/></g><g transform="translate(3.264309 50.052269)"><path d="m.3222346 14.4893282s1.13102686-12.55001803 2.28078411-14.34984768" fill="#fff"/><path d="m.3222346 14.4893282s1.13102686-12.55001803 2.28078411-14.34984768" stroke="#0d0630" stroke-linecap="round" stroke-linejoin="round" stroke-width="1.16"/></g><path d="m95.5756964 11.1581187c0 5.4540183-7.9222309 13.5229377-10.442908 23.0121332-.1458808.5481642-.925713.5417068-1.0550247-.0104036-2.2933911-9.7708113-10.2577653-17.5330027-10.2577653-23.0017296 0-5.98352775 4.8698991-10.83413501 10.8776689-10.83413501s10.8780291 4.85060726 10.8780291 10.83413501" fill="#f08236"/><path d="m95.5756964 11.1581187c0 5.4540183-7.9222309 13.5229377-10.442908 23.0121332-.1458808.5481642-.925713.5417068-1.0550247-.0104036-2.2933911-9.7708113-10.2577653-17.5330027-10.2577653-23.0017296 0-5.98352775 4.8698991-10.83413501 10.8776689-10.83413501s10.8780291 4.85060726 10.8780291 10.83413501z" stroke="#0d0630" stroke-width="1.16"/><path d="m88.0076138 11.1581187c0 1.8209957-1.4818613 3.2968775-3.3098745 3.2968775-1.8283733 0-3.3102347-1.4758818-3.3102347-3.2968775 0-1.82063694 1.4818614-3.29651877 3.3102347-3.29651877 1.8280132 0 3.3098745 1.47588183 3.3098745 3.29651877" fill="#fbaf23"/><path d="m88.0076138 11.1581187c0 1.8209957-1.4818613 3.2968775-3.3098745 3.2968775-1.8283733 0-3.3102347-1.4758818-3.3102347-3.2968775 0-1.82063694 1.4818614-3.29651877 3.3102347-3.29651877 1.8280132 0 3.3098745 1.47588183 3.3098745 3.29651877z" stroke="#0d0630" stroke-width="1.16"/></g></g></g></svg>